<svg width="100px" height="100px" viewBox="0 0 100 100" version="1.1" xmlns="http://www.w3.org/2000/svg">
    <title>Tennis ball</title>
    <description>A tennis ball. The International Tennis Federation (ITF) defines the official diameter as 6.54–6.86 cm</description>
    <defs></defs>
    <g id="ball" stroke="none" stroke-width="1" fill="none" fill-rule="evenodd">
        <g fill="#CDFF00">
            <path d="M50,100 C77.6142389,100 100,77.6142389 100,50 C100,22.3857611 77.6142389,0 50,0 C22.3857611,0 0,22.3857611 0,50 C0,77.6142389 22.3857611,100 50,100 Z M49.9092559,0.0181488203 C22.3049002,0.0181488203 -0.0725952813,22.3956443 -0.0725952813,50 C-0.0725952813,77.6043557 22.3049002,99.9818512 49.9092559,99.9818512 C77.5136116,99.9818512 99.8911071,77.6043557 99.8911071,50 C99.8911071,22.3956443 77.5136116,0.0181488203 49.9092559,0.0181488203 L49.9092559,0.0181488203 Z M32.522686,93.53902 L31.0889292,92.9038113 C22.1960073,88.9292196 15.0272232,82.6860254 9.8185118,74.3557169 C4.42831216,65.2268603 2.26860254,55.3176044 3.35753176,44.8638838 C3.95644283,39.600726 5.40834846,34.5735027 7.676951,29.8729583 L7.91288566,29.3647913 L8.43920145,29.1833031 C11.7967332,28.0580762 15.2813067,27.3684211 18.8203267,27.1324864 C22.522686,26.8965517 26.1343013,27.5317604 29.491833,28.9836661 C34.1016334,31.5970962 37.8402904,35.1724138 40.7441016,39.6733212 C43.4119782,43.5753176 44.5372051,47.9128857 44.1016334,52.5589837 C43.6479129,57.2050817 42.5408348,61.7059891 40.8166969,65.9528131 C37.7858439,74.446461 35.1179673,83.23049 32.9038113,91.9963702 L32.522686,93.53902 L32.522686,93.53902 Z M95.2268603,61.8511797 C92.2867514,72.831216 86.0798548,81.7422868 76.76951,88.3303085 C68.4754991,94.0108893 59.3466425,96.8784029 49.6188748,96.8784029 C48.0217786,96.8784029 46.3520871,96.8058076 44.7731397,96.6606171 C42.2323049,96.2431942 39.8366606,95.7350272 37.5317604,95.1179673 L36.261343,94.7912886 L36.569873,93.5208711 C38.7295826,84.7549909 41.3793103,75.9891107 44.4283122,67.4410163 C46.5154265,62.5408348 47.7495463,57.3865699 48.0943739,51.9963702 C48.4392015,46.6243194 46.9872958,41.6878403 43.7749546,37.3139746 C40.7622505,32.7767695 36.9147005,29.0018149 32.2867514,26.0798548 C26.5880218,23.3938294 20.3266788,22.522686 13.9927405,23.6842105 L10.5989111,24.3012704 L12.7041742,21.5607985 C17.168784,15.7350272 22.831216,11.0889292 29.491833,7.78584392 C37.6406534,3.92014519 46.2976407,2.45009074 55.154265,3.41197822 C57.3321234,3.62976407 59.5281307,4.04718693 61.6515426,4.62794918 L63.1034483,5.02722323 L62.522686,6.4246824 C61.1252269,9.8185118 60.6715064,13.3575318 61.1615245,16.969147 C61.7059891,21.0163339 63.0852995,25.0090744 65.1361162,28.4754991 C66.261343,31.1252269 67.6950998,33.53902 69.491833,35.8076225 C73.2667877,40.4718693 77.8584392,44.4101633 83.1578947,47.5136116 C85.7894737,49.1107078 88.2940109,51.0163339 90.5989111,53.1760436 C92.8856624,55.3176044 94.4283122,57.9491833 95.1905626,61.0163339 L95.2813067,61.3430127 L95.2268603,61.8511797 L95.2268603,61.8511797 Z M94.4283122,51.615245 C91.7059891,48.6569873 88.584392,46.2068966 85.1179673,44.3375681 C80.0362976,41.2885662 75.6805808,37.4410163 72.1052632,32.9219601 C70.7985481,31.1252269 69.6551724,29.1470054 68.8021779,27.1869328 C68.7114338,26.9147005 68.6388385,26.8421053 68.6206897,26.8058076 L68.4392015,26.5517241 C66.7150635,23.4482759 65.5898367,20.1088929 65.0816697,16.6061706 C64.6279492,13.3938294 65.0272232,10.4355717 66.3339383,7.5862069 L66.8602541,6.40653358 L68.0580762,6.91470054 C77.0235935,10.7441016 84.2649728,16.8602541 89.6188748,25.0998185 C94.4646098,32.9582577 96.8602541,41.5789474 96.7513612,50.7441016 L96.7150635,54.1016334 L94.4283122,51.615245 L94.4283122,51.615245 Z"></path>
        </g>
    </g>
</svg>