<?xml version="1.0" encoding="utf-8"?>
<!DOCTYPE svg PUBLIC "-//W3C//DTD SVG 1.1//EN" "http://www.w3.org/Graphics/SVG/1.1/DTD/svg11.dtd">
<svg version="1.1" id="Layer_1" xmlns="http://www.w3.org/2000/svg" xmlns:xlink="http://www.w3.org/1999/xlink" x="0px" y="0px"
	 viewBox="0 0 612 792" enable-background="new 0 0 612 792" xml:space="preserve">
<g>
	<path d="M306,44.1c-152.1,0-275.4,123.3-275.4,275.4c0,152.1,123.3,275.4,275.4,275.4s275.4-123.3,275.4-275.4
		C581.4,167.4,458.1,44.1,306,44.1z M210.2,559.4l-7.9-3.5c-49-21.9-88.5-56.3-117.2-102.2c-29.7-50.3-41.6-104.9-35.6-162.5
		c3.3-29,11.3-56.7,23.8-82.6l1.3-2.8l2.9-1c18.5-6.2,37.7-10,57.2-11.3c20.4-1.3,40.3,2.2,58.8,10.2c25.4,14.4,46,34.1,62,58.9
		c14.7,21.5,20.9,45.4,18.5,71c-2.5,25.6-8.6,50.4-18.1,73.8c-16.7,46.8-31.4,95.2-43.6,143.5L210.2,559.4z M555.7,384.8
		c-16.2,60.5-50.4,109.6-101.7,145.9c-45.7,31.3-96,47.1-149.6,47.1c-8.8,0-18-0.4-26.7-1.2c-14-2.3-27.2-5.1-39.9-8.5l-7-1.8l1.7-7
		c11.9-48.3,26.5-96.6,43.3-143.7c11.5-27,18.3-55.4,20.2-85.1c1.9-29.6-6.1-56.8-23.8-80.9c-16.6-25-37.8-45.8-63.3-61.9
		c-31.4-14.8-65.9-19.6-100.8-13.2l-18.7,3.4l11.6-15.1c24.6-32.1,55.8-57.7,92.5-75.9c44.9-21.3,92.6-29.4,141.4-24.1
		c12,1.2,24.1,3.5,35.8,6.7l8,2.2l-3.2,7.7c-7.7,18.7-10.2,38.2-7.5,58.1c3,22.3,10.6,44.3,21.9,63.4c6.2,14.6,14.1,27.9,24,40.4
		c20.8,25.7,46.1,47.4,75.3,64.5c14.5,8.8,28.3,19.3,41,31.2c12.6,11.8,21.1,26.3,25.3,43.2l0.5,1.8L555.7,384.8z M551.3,328.4
		c-15-16.3-32.2-29.8-51.3-40.1c-28-16.8-52-38-71.7-62.9c-7.2-9.9-13.5-20.8-18.2-31.6c-0.5-1.5-0.9-1.9-1-2.1l-1-1.4
		c-9.5-17.1-15.7-35.5-18.5-54.8c-2.5-17.7-0.3-34,6.9-49.7l2.9-6.5l6.6,2.8c49.4,21.1,89.3,54.8,118.8,100.2
		c26.7,43.3,39.9,90.8,39.3,141.3l-0.2,18.5L551.3,328.4z"/>
</g>
</svg>
